<svg height="390" viewBox="0 0 390 390" width="390" xmlns="http://www.w3.org/2000/svg" xmlns:xlink="http://www.w3.org/1999/xlink"><linearGradient id="a" x1="16.654339%" x2="87.734617%" y1="9.791021%" y2="91.110596%"><stop offset="0" stop-color="#479eff"/><stop offset="1" stop-color="#2367e4"/></linearGradient><g fill="none" fill-rule="evenodd"><path d="m195.5 378c-99.6873973 0-180.5-80.812603-180.5-180.5 0-99.6873973 80.8126027-180.5 180.5-180.5 99.687397 0 180.5 80.8126027 180.5 180.5 0 99.687397-80.812603 180.5-180.5 180.5zm-90.25-160.771838c0 11.708167 1.814739 22.303899 5.44427 31.787514 3.629532 9.483615 8.546888 17.503589 14.752216 24.060162 6.205329 6.556573 13.288663 11.591009 21.250217 15.103459 7.961553 3.51245 16.274227 5.268649 24.93827 5.268649 13.34731 0 24.996761-3.980717 34.948703-11.94227 9.951941-7.961554 18.206075-17.562106 24.762648-28.801946 0 13.34731 3.336778 23.064942 10.010433 29.153189s16.332747 9.132324 28.977567 9.132324l10.888541-24.587027c-6.088247 0-11.005603-1.346419-14.752216-4.039297-3.746614-2.692878-5.619892-7.317535-5.619892-13.874108 0-1.639144.05854-3.219722.175621-4.741784.117082-1.522062.292702-2.868481.526865-4.039297l22.128325-124.691352c-6.790737-2.80996-15.39611-5.619877-25.816379-8.429837-10.420268-2.80996-22.538039-4.214919-36.353675-4.214919-16.85976 0-32.431389 2.809917-46.715352 8.429837s-26.577354 13.464274-36.88054 23.533298c-10.303187 10.069023-18.323161 22.186794-24.060163 36.353675-5.737001 14.166882-8.605459 29.67997-8.605459 46.53973zm145.492757-83.459297-9.483568 54.442703c-1.873306 11.23984-4.683224 21.601412-8.429838 31.085027-3.746613 9.483615-8.19565 17.679208-13.347243 24.587027-5.151593 6.907818-10.947049 12.234954-17.38654 15.981567-6.439492 3.746614-13.171587 5.619892-20.196487 5.619892-5.385757 0-10.595813-1.112259-15.630324-3.336811-5.034512-2.224551-9.542088-5.561329-13.522865-10.010432s-7.200474-9.893319-9.659189-16.332811-3.688054-13.874066-3.688054-22.303946c0-12.176493 1.873278-23.416165 5.619892-33.719351 3.746613-10.303187 9.132289-19.20126 16.157189-26.694487 7.0249-7.493226 15.454653-13.347222 25.289513-17.562162s20.840372-6.322378 33.016865-6.322378c6.790737 0 12.586192.409779 17.386541 1.229351 4.800348.819572 9.425004 1.931831 13.874108 3.336811z" fill="url(#a)"/><path d="m-7.47678866 321.989334c31.30776046 26.15693 71.61818386 41.898416 115.60522866 41.898416 99.642053 0 180.417898-80.775844 180.417898-180.417898 0-59.236513-28.547964-111.8052923-72.636247-144.6986915 39.612402 33.0952903 64.812626 82.8644545 64.812626 138.5194455 0 99.642054-80.775844 180.417898-180.417898 180.417898-40.4055381 0-77.7087952-13.282442-107.78164601-35.719202z" fill="#fff" opacity=".531483" transform="matrix(-.9961947 .08715574 -.08715574 -.9961947 319.163238 370.243498)"/><path d="m104 219.810662c0-16.853026 2.86152-32.359917 8.584646-46.52114 5.723125-14.161223 13.723702-26.274153 24.001968-36.339154 10.278267-10.065002 22.541924-17.906222 36.791339-23.523897 14.249415-5.617676 29.78338-8.426471 46.602362-8.426471 13.782221 0 25.870683 1.404398 36.265748 4.213235 10.395065 2.808838 18.979625 5.617633 25.753937 8.426471l-22.074803 124.641544c-.233597 1.170349-.408792 2.51623-.525591 4.037684-.116798 1.521454-.175197 3.101401-.175197 4.73989 0 6.553954 1.868748 11.176763 5.6063 13.868566 3.737551 2.691802 8.643014 4.037684 14.716535 4.037684l-10.862205 24.577205c-12.614236 0-22.249966-3.042861-28.90748-9.128676s-9.98622-15.799566-9.98622-29.141544c-6.540716 11.23535-14.774885 20.832068-24.702756 28.790441s-21.549146 11.9375-34.864174 11.9375c-8.643087 0-16.935655-1.755497-24.877952-5.266544s-15.0085-8.543472-21.198819-15.097427c-6.19032-6.553954-11.095783-14.570724-14.716536-24.050551s-5.431102-20.071326-5.431102-31.774816zm143.311024-83.5625c-4.438343-1.404419-9.051814-2.516234-13.840552-3.335478-4.788737-.819244-10.570176-1.22886-17.344488-1.22886-12.147042 0-23.125935 2.106596-32.937008 6.319852-9.811072 4.213257-18.220437 10.064914-25.228346 17.555148-7.007909 7.490233-12.380559 16.384752-16.11811 26.683823-3.737552 10.299071-5.6063 21.534253-5.6063 33.705882 0 8.426513 1.226366 15.858118 3.679134 22.295037 2.452769 6.43692 5.664679 11.878961 9.635827 16.326287 3.971149 4.447326 8.467823 7.782771 13.490158 10.006434 5.022334 2.223663 10.219789 3.335478 15.592519 3.335478 7.007909 0 13.723721-1.872531 20.147638-5.617647 6.423917-3.745117 12.205355-9.070125 17.344488-15.975184 5.139134-6.905059 9.577409-15.097379 13.314961-24.577206 3.737551-9.479827 6.540673-19.83726 8.409449-31.07261z"/></g></svg>