<?xml version="1.0" encoding="UTF-8"?>
<svg width="390px" height="390px" viewBox="0 0 390 390" version="1.1" xmlns="http://www.w3.org/2000/svg" xmlns:xlink="http://www.w3.org/1999/xlink">
    <!-- Generator: Sketch 54.1 (76490) - https://sketchapp.com -->
    <title>Artboard</title>
    <desc>Created with Sketch.</desc>
    <defs>
        <linearGradient x1="16.6543388%" y1="9.79102118%" x2="87.7346174%" y2="91.1105959%" id="linearGradient-1">
            <stop stop-color="#479EFF" offset="0%"></stop>
            <stop stop-color="#2367E4" offset="100%"></stop>
        </linearGradient>
    </defs>
    <g id="Artboard" stroke="none" stroke-width="1" fill="none" fill-rule="evenodd">
        <path d="M195.5,378 C95.8126027,378 15,297.187397 15,197.5 C15,97.8126027 95.8126027,17 195.5,17 C295.187397,17 376,97.8126027 376,197.5 C376,297.187397 295.187397,378 195.5,378 Z M105.25,217.228162 C105.25,228.936329 107.064739,239.532061 110.69427,249.015676 C114.323802,258.499291 119.241158,266.519265 125.446486,273.075838 C131.651815,279.632411 138.735149,284.666847 146.696703,288.179297 C154.658256,291.691747 162.97093,293.447946 171.634973,293.447946 C184.982283,293.447946 196.631734,289.467229 206.583676,281.505676 C216.535617,273.544122 224.789751,263.94357 231.346324,252.70373 C231.346324,266.05104 234.683102,275.768672 241.356757,281.856919 C248.030412,287.945166 257.689504,290.989243 270.334324,290.989243 L281.222865,266.402216 C275.134618,266.402216 270.217262,265.055797 266.470649,262.362919 C262.724035,259.670041 260.850757,255.045384 260.850757,248.488811 C260.850757,246.849667 260.909297,245.269089 261.026378,243.747027 C261.14346,242.224965 261.31908,240.878546 261.553243,239.70773 L283.681568,115.016378 C276.890831,112.206418 268.285458,109.396501 257.865189,106.586541 C247.444921,103.776581 235.32715,102.371622 221.511514,102.371622 C204.651754,102.371622 189.080125,105.181539 174.796162,110.801459 C160.512199,116.421379 148.218808,124.265733 137.915622,134.334757 C127.612435,144.40378 119.592461,156.521551 113.855459,170.688432 C108.118458,184.855314 105.25,200.368402 105.25,217.228162 Z M250.742757,133.768865 L241.259189,188.211568 C239.385883,199.451408 236.575965,209.81298 232.829351,219.296595 C229.082738,228.78021 224.633701,236.975803 219.482108,243.883622 C214.330515,250.79144 208.535059,256.118576 202.095568,259.865189 C195.656076,263.611803 188.923981,265.485081 181.899081,265.485081 C176.513324,265.485081 171.303268,264.372822 166.268757,262.14827 C161.234245,259.923719 156.726669,256.586941 152.745892,252.137838 C148.765115,247.688735 145.545418,242.244519 143.086703,235.805027 C140.627988,229.365535 139.398649,221.930961 139.398649,213.501081 C139.398649,201.324588 141.271927,190.084916 145.018541,179.78173 C148.765154,169.478543 154.15083,160.58047 161.17573,153.087243 C168.20063,145.594017 176.630383,139.740021 186.465243,135.525081 C196.300103,131.310141 207.305615,129.202703 219.482108,129.202703 C226.272845,129.202703 232.0683,129.612482 236.868649,130.432054 C241.668997,131.251626 246.293653,132.363885 250.742757,133.768865 Z" id="Mask" fill="url(#linearGradient-1)"></path>
        <path d="M-7.47678866,321.989334 C23.8309718,348.146264 64.1413952,363.88775 108.12844,363.88775 C207.770493,363.88775 288.546338,283.111906 288.546338,183.469852 C288.546338,124.233339 259.998374,71.6645597 215.910091,38.7711605 C255.522493,71.8664508 280.722717,121.635615 280.722717,177.290606 C280.722717,276.93266 199.946873,357.708504 100.304819,357.708504 C59.8992809,357.708504 22.5960238,344.426062 -7.47682701,321.989302 Z" id="Combined-Shape-Copy" fill="#FFFFFF" opacity="0.531483209" transform="translate(151.499029, 192.089233) rotate(175.000000) translate(-151.499029, -192.089233) "></path>
        <path d="M104,219.810662 C104,202.957636 106.86152,187.450745 112.584646,173.289522 C118.307771,159.128299 126.308348,147.015369 136.586614,136.950368 C146.864881,126.885366 159.128538,119.044146 173.377953,113.426471 C187.627368,107.808795 203.161333,105 219.980315,105 C233.762536,105 245.850998,106.404398 256.246063,109.213235 C266.641128,112.022073 275.225688,114.830868 282,117.639706 L259.925197,242.28125 C259.6916,243.451599 259.516405,244.79748 259.399606,246.318934 C259.282808,247.840388 259.224409,249.420335 259.224409,251.058824 C259.224409,257.612778 261.093157,262.235587 264.830709,264.92739 C268.56826,267.619192 273.473723,268.965074 279.547244,268.965074 L268.685039,293.542279 C256.070803,293.542279 246.435073,290.499418 239.777559,284.413603 C233.120045,278.327788 229.791339,268.614037 229.791339,255.272059 C223.250623,266.507409 215.016454,276.104127 205.088583,284.0625 C195.160712,292.020873 183.539437,296 170.224409,296 C161.581322,296 153.288754,294.244503 145.346457,290.733456 C137.40416,287.222409 130.337957,282.189984 124.147638,275.636029 C117.957318,269.082075 113.051855,261.065305 109.431102,251.585478 C105.810349,242.105651 104,231.514152 104,219.810662 Z M247.311024,136.248162 C242.872681,134.843743 238.25921,133.731928 233.470472,132.912684 C228.681735,132.09344 222.900296,131.683824 216.125984,131.683824 C203.978942,131.683824 193.000049,133.79042 183.188976,138.003676 C173.377904,142.216933 164.968539,148.06859 157.96063,155.558824 C150.952721,163.049057 145.580071,171.943576 141.84252,182.242647 C138.104968,192.541718 136.23622,203.7769 136.23622,215.948529 C136.23622,224.375042 137.462586,231.806647 139.915354,238.243566 C142.368123,244.680486 145.580033,250.122527 149.551181,254.569853 C153.52233,259.017179 158.019004,262.352624 163.041339,264.576287 C168.063673,266.79995 173.261128,267.911765 178.633858,267.911765 C185.641767,267.911765 192.357579,266.039234 198.781496,262.294118 C205.205413,258.549001 210.986851,253.223993 216.125984,246.318934 C221.265118,239.413875 225.703393,231.221555 229.440945,221.741728 C233.178496,212.261901 235.981618,201.904468 237.850394,190.669118 L247.311024,136.248162 Z" id="Combined-Shape"></path>
    </g>
</svg>